<svg width="341" height="433" viewBox="0 0 341 433" fill="none" xmlns="http://www.w3.org/2000/svg">
<path d="M341 151.413H0V432.413H341V151.413Z" fill="#DC321E"/>
<g filter="url(#filter0_d_150_697)">
<path d="M169.785 0L341 151.348H0L169.785 0Z" fill="#DC321E"/>
</g>
<path d="M318.678 186H22.3217V391.605H318.678V186Z" fill="#FAF5F0"/>
<path d="M59.1107 257.121C55.2091 257.121 52.3056 254.354 52.3056 250.634V240.902H55.1411V250.475C55.1411 252.902 56.7516 254.558 59.1107 254.558C61.4471 254.558 63.0803 252.902 63.0803 250.475V240.902H65.9158V250.634C65.9158 254.354 63.035 257.121 59.1107 257.121ZM67.1483 256.781L72.0707 246.778H67.3071V244.373H76.1764L71.2541 254.354H76.063V256.781H67.1483ZM70.8684 243.262L68.1464 240.154H70.4375L71.8665 241.606L73.2956 240.154H75.5413L72.7966 243.262H70.8684ZM79.1953 257.031C78.2879 257.031 77.3806 256.826 76.6774 256.441V254.059C77.2218 254.422 77.9704 254.649 78.6509 254.649C79.6943 254.649 80.3975 254.104 80.3975 253.265C80.3975 252.789 80.1707 252.312 79.6263 251.723L78.4921 250.475C77.7889 249.658 77.494 248.796 77.494 247.798C77.494 245.621 79.2406 244.101 81.5317 244.101C82.4164 244.101 83.2557 244.305 83.8908 244.668V247.027C83.3918 246.687 82.6659 246.437 81.9854 246.437C80.9419 246.437 80.2614 247.004 80.2614 247.798C80.2614 248.275 80.5109 248.774 81.0553 249.341L82.1668 250.588C82.87 251.428 83.2103 252.267 83.2103 253.265C83.2103 255.511 81.4636 257.031 79.1953 257.031ZM85.2213 256.781V244.373H88.0114V256.781H85.2213ZM86.6277 243.125C85.8111 243.125 85.1986 242.49 85.1986 241.719C85.1986 240.925 85.8111 240.313 86.6277 240.313C87.4216 240.313 88.0568 240.925 88.0568 241.719C88.0568 242.49 87.4216 243.125 86.6277 243.125ZM89.9618 256.781V244.373H92.7293V246.868C93.319 245.19 94.4759 244.214 95.905 244.214C96.2906 244.214 96.6082 244.282 96.835 244.396V247.209C96.5174 247.072 96.1545 247.027 95.7462 247.027C93.8634 247.027 92.7519 248.343 92.7519 250.498V256.781H89.9618ZM103.683 257.076C99.7139 257.076 97.0599 254.354 97.0599 250.656C97.0599 246.868 99.7139 244.078 103.298 244.078C106.587 244.078 108.901 246.505 108.901 250.021C108.901 250.588 108.833 251.133 108.81 251.36H99.7819C100.122 253.424 101.597 254.649 104.001 254.649C105.362 254.649 106.678 254.263 107.676 253.56V256.055C106.746 256.668 105.226 257.076 103.683 257.076ZM99.7819 249.295H106.315C106.315 247.549 105.067 246.392 103.253 246.392C101.483 246.392 100.145 247.435 99.7819 249.295ZM115.855 260.546C114.29 260.546 112.77 260.161 111.908 259.548V257.167C112.793 257.87 114.041 258.255 115.424 258.255C117.988 258.255 119.349 256.849 119.349 254.286V253.242C118.555 254.671 117.126 255.42 115.288 255.42C112.158 255.42 109.753 253.016 109.753 249.772C109.753 246.528 112.203 244.101 115.334 244.101C117.103 244.101 118.577 244.827 119.349 246.074V244.373H122.139V254.286C122.139 258.142 119.712 260.546 115.855 260.546ZM115.969 253.129C118.146 253.129 119.349 251.496 119.349 250.067V249.432C119.349 248.002 118.146 246.392 115.969 246.392C113.973 246.392 112.589 247.753 112.589 249.749C112.589 251.791 113.973 253.129 115.969 253.129ZM124.076 256.781V244.373H126.866V256.781H124.076ZM125.482 243.125C124.666 243.125 124.053 242.49 124.053 241.719C124.053 240.925 124.666 240.313 125.482 240.313C126.276 240.313 126.911 240.925 126.911 241.719C126.911 242.49 126.276 243.125 125.482 243.125ZM130.676 257.031C129.769 257.031 128.862 256.826 128.159 256.441V254.059C128.703 254.422 129.452 254.649 130.132 254.649C131.176 254.649 131.879 254.104 131.879 253.265C131.879 252.789 131.652 252.312 131.107 251.723L129.973 250.475C129.27 249.658 128.975 248.796 128.975 247.798C128.975 245.621 130.722 244.101 133.013 244.101C133.898 244.101 134.737 244.305 135.372 244.668V247.027C134.873 246.687 134.147 246.437 133.467 246.437C132.423 246.437 131.743 247.004 131.743 247.798C131.743 248.275 131.992 248.774 132.537 249.341L133.648 250.588C134.351 251.428 134.691 252.267 134.691 253.265C134.691 255.511 132.945 257.031 130.676 257.031ZM138.245 256.781V246.619H135.954V244.373H138.245V241.991H141.035V244.373H143.598V246.619H141.035V256.781H138.245ZM144.81 256.781V244.373H147.578V246.868C148.167 245.19 149.324 244.214 150.753 244.214C151.139 244.214 151.456 244.282 151.683 244.396V247.209C151.366 247.072 151.003 247.027 150.594 247.027C148.712 247.027 147.6 248.343 147.6 250.498V256.781H144.81ZM157.091 257.031C154.46 257.031 152.849 255.216 152.849 252.244V244.373H155.639V251.632C155.639 253.628 156.456 254.649 158.021 254.649C159.836 254.649 161.038 253.22 161.038 251.133V244.373H163.805V256.781H161.038V254.83C160.312 256.214 158.86 257.031 157.091 257.031ZM171.732 257.076C167.944 257.076 165.222 254.331 165.222 250.588C165.222 246.846 167.944 244.078 171.732 244.078C175.497 244.078 178.219 246.846 178.219 250.588C178.219 254.331 175.497 257.076 171.732 257.076ZM171.732 254.603C173.909 254.603 175.384 252.97 175.384 250.588C175.384 248.184 173.909 246.551 171.732 246.551C169.531 246.551 168.057 248.184 168.057 250.588C168.057 252.97 169.531 254.603 171.732 254.603ZM179.633 256.781V240.381H182.423V249.182L187.277 244.373H190.771L185.236 249.658L190.748 256.781H187.3L182.423 250.293V256.781H179.633ZM195.051 256.781V244.373H197.841V256.781H195.051ZM196.457 243.125C195.641 243.125 195.028 242.49 195.028 241.719C195.028 240.925 195.641 240.313 196.457 240.313C197.251 240.313 197.886 240.925 197.886 241.719C197.886 242.49 197.251 243.125 196.457 243.125ZM199.791 256.781V244.373H202.559V246.868C203.149 245.19 204.305 244.214 205.734 244.214C206.12 244.214 206.438 244.282 206.664 244.396V247.209C206.347 247.072 205.984 247.027 205.576 247.027C203.693 247.027 202.581 248.343 202.581 250.498V256.781H199.791ZM218.608 257.031C216.748 257.031 215.205 256.237 214.388 254.808V256.781H211.598V240.381H214.388V246.573C215.205 244.986 216.748 244.101 218.653 244.101C221.987 244.101 224.528 246.891 224.528 250.566C224.528 254.263 221.965 257.031 218.608 257.031ZM218.018 254.603C220.218 254.603 221.693 252.97 221.693 250.588C221.693 248.184 220.218 246.551 218.018 246.551C215.659 246.551 214.388 248.501 214.388 250.225V250.951C214.388 252.675 215.659 254.603 218.018 254.603ZM230.082 257.031C227.45 257.031 225.84 255.216 225.84 252.244V244.373H228.63V251.632C228.63 253.628 229.447 254.649 231.012 254.649C232.827 254.649 234.029 253.22 234.029 251.133V244.373H236.796V256.781H234.029V254.83C233.303 256.214 231.851 257.031 230.082 257.031ZM227.904 242.694V240.698H234.596V242.694H227.904ZM238.757 256.781V240.381H241.547V249.182L246.401 244.373H249.894L244.36 249.658L249.872 256.781H246.424L241.547 250.293V256.781H238.757ZM255.385 256.781V246.619H253.094V244.373H255.385V241.991H258.175V244.373H260.738V246.619H258.175V256.781H255.385ZM267.32 257.076C263.351 257.076 260.697 254.354 260.697 250.656C260.697 246.868 263.351 244.078 266.935 244.078C270.224 244.078 272.537 246.505 272.537 250.021C272.537 250.588 272.469 251.133 272.447 251.36H263.419C263.759 253.424 265.233 254.649 267.638 254.649C268.999 254.649 270.314 254.263 271.312 253.56V256.055C270.382 256.668 268.863 257.076 267.32 257.076ZM263.419 249.295H269.951C269.951 247.549 268.704 246.392 266.889 246.392C265.12 246.392 263.781 247.435 263.419 249.295ZM273.912 256.781V244.373H276.702V246.324C277.428 244.94 278.857 244.101 280.626 244.101C283.258 244.101 284.868 245.916 284.868 248.887V256.781H282.078V249.522C282.078 247.503 281.284 246.505 279.719 246.505C277.904 246.505 276.702 247.934 276.702 250.021V256.781H273.912ZM285.241 259.503L287.01 253.31H289.777L287.577 259.503H285.241ZM78.62 280.781V264.381H81.4101V273.182L86.2644 268.373H89.7577L84.2229 273.658L89.735 280.781H86.2871L81.4101 274.293V280.781H78.62ZM94.4895 281.031C91.8582 281.031 90.2477 279.216 90.2477 276.244V268.373H93.0378V275.632C93.0378 277.628 93.8544 278.649 95.4196 278.649C97.2343 278.649 98.4365 277.22 98.4365 275.133V268.373H101.204V280.781H98.4365V278.83C97.7106 280.214 96.2589 281.031 94.4895 281.031ZM103.164 280.781V268.373H105.932V270.868C106.522 269.19 107.678 268.214 109.108 268.214C109.493 268.214 109.811 268.282 110.038 268.396V271.209C109.72 271.072 109.357 271.027 108.949 271.027C107.066 271.027 105.955 272.343 105.955 274.498V280.781H103.164ZM118.497 280.781L113.371 268.373H116.456L119.722 276.947L123.148 268.373H126.051L120.789 280.781H118.497ZM126.778 280.781V268.373H129.569V280.781H126.778ZM128.185 267.125C127.368 267.125 126.756 266.49 126.756 265.719C126.756 264.925 127.368 264.313 128.185 264.313C128.979 264.313 129.614 264.925 129.614 265.719C129.614 266.49 128.979 267.125 128.185 267.125ZM133.379 281.031C132.472 281.031 131.564 280.826 130.861 280.441V278.059C131.406 278.422 132.154 278.649 132.835 278.649C133.878 278.649 134.581 278.104 134.581 277.265C134.581 276.789 134.354 276.312 133.81 275.723L132.676 274.475C131.973 273.658 131.678 272.796 131.678 271.798C131.678 269.621 133.424 268.101 135.715 268.101C136.6 268.101 137.439 268.305 138.075 268.668V271.027C137.575 270.687 136.85 270.437 136.169 270.437C135.126 270.437 134.445 271.004 134.445 271.798C134.445 272.275 134.695 272.774 135.239 273.341L136.351 274.588C137.054 275.428 137.394 276.267 137.394 277.265C137.394 279.511 135.647 281.031 133.379 281.031ZM139.405 280.781V264.381H142.195V273.182L147.049 268.373H150.543L145.008 273.658L150.52 280.781H147.072L142.195 274.293V280.781H139.405ZM155.568 281.031C152.234 281.031 149.693 278.263 149.693 274.588C149.693 270.891 152.256 268.101 155.613 268.101C157.473 268.101 158.993 268.917 159.833 270.347V268.373H162.623V280.781H159.833V278.558C158.993 280.146 157.473 281.031 155.568 281.031ZM156.203 278.603C158.562 278.603 159.833 276.653 159.833 274.929V274.203C159.833 272.479 158.562 270.551 156.203 270.551C154.003 270.551 152.528 272.161 152.528 274.566C152.528 276.947 154.003 278.603 156.203 278.603ZM166.43 281.031C165.522 281.031 164.615 280.826 163.912 280.441V278.059C164.456 278.422 165.205 278.649 165.885 278.649C166.929 278.649 167.632 278.104 167.632 277.265C167.632 276.789 167.405 276.312 166.861 275.723L165.727 274.475C165.023 273.658 164.728 272.796 164.728 271.798C164.728 269.621 166.475 268.101 168.766 268.101C169.651 268.101 170.49 268.305 171.125 268.668V271.027C170.626 270.687 169.9 270.437 169.22 270.437C168.176 270.437 167.496 271.004 167.496 271.798C167.496 272.275 167.745 272.774 168.29 273.341L169.401 274.588C170.105 275.428 170.445 276.267 170.445 277.265C170.445 279.511 168.698 281.031 166.43 281.031ZM176.465 284.297V268.373H179.255V270.573C180.072 268.986 181.615 268.101 183.52 268.101C186.854 268.101 189.395 270.891 189.395 274.566C189.395 278.263 186.832 281.031 183.475 281.031C181.615 281.031 180.072 280.237 179.255 278.808V284.297H176.465ZM182.885 278.603C185.085 278.603 186.56 276.97 186.56 274.588C186.56 272.184 185.085 270.551 182.885 270.551C180.526 270.551 179.255 272.501 179.255 274.225V274.951C179.255 276.675 180.526 278.603 182.885 278.603ZM190.798 280.781V268.373H193.565V270.868C194.155 269.19 195.312 268.214 196.741 268.214C197.126 268.214 197.444 268.282 197.671 268.396V271.209C197.353 271.072 196.99 271.027 196.582 271.027C194.699 271.027 193.588 272.343 193.588 274.498V280.781H190.798ZM203.815 281.031C200.481 281.031 197.94 278.263 197.94 274.588C197.94 270.891 200.503 268.101 203.86 268.101C205.72 268.101 207.24 268.917 208.08 270.347V268.373H210.87V280.781H208.08V278.558C207.24 280.146 205.72 281.031 203.815 281.031ZM204.45 278.603C206.809 278.603 208.08 276.653 208.08 274.929V274.203C208.08 272.479 206.809 270.551 204.45 270.551C202.25 270.551 200.775 272.161 200.775 274.566C200.775 276.947 202.25 278.603 204.45 278.603ZM214.677 281.031C213.769 281.031 212.862 280.826 212.159 280.441V278.059C212.703 278.422 213.452 278.649 214.132 278.649C215.176 278.649 215.879 278.104 215.879 277.265C215.879 276.789 215.652 276.312 215.108 275.723L213.974 274.475C213.27 273.658 212.975 272.796 212.975 271.798C212.975 269.621 214.722 268.101 217.013 268.101C217.898 268.101 218.737 268.305 219.372 268.668V271.027C218.873 270.687 218.147 270.437 217.467 270.437C216.423 270.437 215.743 271.004 215.743 271.798C215.743 272.275 215.992 272.774 216.537 273.341L217.648 274.588C218.352 275.428 218.692 276.267 218.692 277.265C218.692 279.511 216.945 281.031 214.677 281.031ZM220.703 280.781V268.373H223.493V280.781H220.703ZM222.109 267.125C221.293 267.125 220.68 266.49 220.68 265.719C220.68 264.925 221.293 264.313 222.109 264.313C222.903 264.313 223.538 264.925 223.538 265.719C223.538 266.49 222.903 267.125 222.109 267.125ZM230.774 281.031C227.44 281.031 224.899 278.263 224.899 274.588C224.899 270.891 227.462 268.101 230.819 268.101C232.679 268.101 234.199 268.917 235.039 270.347V264.381H237.829V280.781H235.039V278.558C234.199 280.146 232.679 281.031 230.774 281.031ZM231.409 278.603C233.768 278.603 235.039 276.653 235.039 274.929V274.203C235.039 272.479 233.768 270.551 231.409 270.551C229.209 270.551 227.734 272.161 227.734 274.566C227.734 276.947 229.209 278.603 231.409 278.603ZM245.855 281.076C241.885 281.076 239.231 278.354 239.231 274.656C239.231 270.868 241.885 268.078 245.469 268.078C248.758 268.078 251.072 270.505 251.072 274.021C251.072 274.588 251.004 275.133 250.981 275.36H241.953C242.294 277.424 243.768 278.649 246.172 278.649C247.533 278.649 248.849 278.263 249.847 277.56V280.055C248.917 280.668 247.397 281.076 245.855 281.076ZM245.424 267.125C244.607 267.125 243.995 266.49 243.995 265.719C243.995 264.925 244.607 264.313 245.424 264.313C246.218 264.313 246.853 264.925 246.853 265.719C246.853 266.49 246.218 267.125 245.424 267.125ZM241.953 273.295H248.486C248.486 271.549 247.239 270.392 245.424 270.392C243.655 270.392 242.316 271.435 241.953 273.295ZM254.019 281.031C253.111 281.031 252.204 280.826 251.501 280.441V278.059C252.045 278.422 252.794 278.649 253.474 278.649C254.518 278.649 255.221 278.104 255.221 277.265C255.221 276.789 254.994 276.312 254.45 275.723L253.315 274.475C252.612 273.658 252.317 272.796 252.317 271.798C252.317 269.621 254.064 268.101 256.355 268.101C257.24 268.101 258.079 268.305 258.714 268.668V271.027C258.215 270.687 257.489 270.437 256.809 270.437C255.765 270.437 255.085 271.004 255.085 271.798C255.085 272.275 255.334 272.774 255.879 273.341L256.99 274.588C257.693 275.428 258.034 276.267 258.034 277.265C258.034 279.511 256.287 281.031 254.019 281.031ZM260.894 281.053C259.827 281.053 259.034 280.259 259.034 279.239C259.034 278.218 259.827 277.424 260.894 277.424C261.96 277.424 262.754 278.218 262.754 279.239C262.754 280.259 261.96 281.053 260.894 281.053Z" fill="#231F20"/>
<path d="M341 151.413V431.686H0L2.26498e-05 151.413L27.3908 160.944C31.3946 162.338 35.0621 164.559 38.1464 167.464L148.986 271.781H192.009L302.843 167.464C305.933 164.559 309.6 162.338 313.599 160.944L340.995 151.413H341Z" fill="#DC321E"/>
<path d="M341 371.231H0L9.43676 354.827C11.1181 351.906 13.2724 349.285 15.8155 347.08L111.975 263.587C117.46 258.825 124.475 256.204 131.731 256.204H209.269C216.525 256.204 223.54 258.825 229.025 263.587L325.185 347.08C327.728 349.29 329.882 351.906 331.563 354.827L341 371.231Z" fill="#DC321E"/>
<defs>
<filter id="filter0_d_150_697" x="0" y="0" width="341" height="153.252" filterUnits="userSpaceOnUse" color-interpolation-filters="sRGB">
<feFlood flood-opacity="0" result="BackgroundImageFix"/>
<feColorMatrix in="SourceAlpha" type="matrix" values="0 0 0 0 0 0 0 0 0 0 0 0 0 0 0 0 0 0 127 0" result="hardAlpha"/>
<feOffset dy="1.90375"/>
<feComposite in2="hardAlpha" operator="out"/>
<feColorMatrix type="matrix" values="0 0 0 0 0.862745 0 0 0 0 0.196078 0 0 0 0 0.117647 0 0 0 1 0"/>
<feBlend mode="normal" in2="BackgroundImageFix" result="effect1_dropShadow_150_697"/>
<feBlend mode="normal" in="SourceGraphic" in2="effect1_dropShadow_150_697" result="shape"/>
</filter>
</defs>
</svg>
