<svg width="649" height="830" viewBox="0 0 649 830" fill="none" xmlns="http://www.w3.org/2000/svg">
<path d="M648.985 273.398V529.95H0.000244141V273.398C0.000244141 260.973 5.57229 249.203 15.1826 241.328L298.212 9.39275C313.495 -3.13092 335.491 -3.13092 350.774 9.39275L633.803 241.328C643.414 249.203 648.985 260.973 648.985 273.398Z" fill="#DC321E"/>
<path d="M0.000249646 816.11L0.00025936 705L649 705L649 816.111C649 821.492 649 819.005 649 830L335.508 830C226.505 830 197.505 830 239.006 830L4.29168e-06 830C0.000144822 823.345 0.000249176 821.492 0.000249646 816.11Z" fill="#DC321E"/>
<path d="M606.509 75.4076H42.4773V639.439H606.509V75.4076Z" fill="#FAF5F0"/>
<path d="M648.985 287.706V705.4H0.000244141V287.706L52.1298 305.82C59.7518 308.466 66.7288 312.691 72.5999 318.207L283.553 516.431H365.433L576.373 318.207C582.257 312.691 589.234 308.466 596.843 305.82L648.985 287.706Z" fill="#DC321E"/>
<path d="M648.985 705.4H0.000244141L17.958 674.225C21.1549 668.676 25.2581 663.7 30.0975 659.505L213.108 500.853C223.545 491.806 236.895 486.825 250.708 486.825H398.278C412.091 486.825 425.441 491.806 435.878 500.853L618.888 659.505C623.728 663.7 627.831 668.676 631.028 674.226L648.985 705.4Z" fill="#DC321E"/>
</svg>
