<svg width="22" height="22" viewBox="0 0 22 22" fill="none" xmlns="http://www.w3.org/2000/svg">
<path d="M11 22C17.0751 22 22 17.0751 22 11C22 4.92487 17.0751 0 11 0C4.92487 0 0 4.92487 0 11C0 17.0751 4.92487 22 11 22Z" fill="#FAF5F0"/>
<path d="M13.7469 5H8.25305C6.45644 5 5 6.45644 5 8.25305V13.7469C5 15.5436 6.45644 17 8.25305 17H13.7469C15.5436 17 17 15.5436 17 13.7469V8.25305C17 6.45644 15.5436 5 13.7469 5Z" stroke="#191919" stroke-width="1.2" stroke-miterlimit="10"/>
<path d="M11 14C12.6569 14 14 12.6569 14 11C14 9.34315 12.6569 8 11 8C9.34315 8 8 9.34315 8 11C8 12.6569 9.34315 14 11 14Z" stroke="#191919" stroke-width="1.2" stroke-miterlimit="10"/>
<path d="M14.5 8C14.7761 8 15 7.77614 15 7.5C15 7.22386 14.7761 7 14.5 7C14.2239 7 14 7.22386 14 7.5C14 7.77614 14.2239 8 14.5 8Z" fill="#191919" stroke="#191919" stroke-miterlimit="10"/>
</svg>
