<svg width="22" height="22" viewBox="0 0 22 22" fill="none" xmlns="http://www.w3.org/2000/svg">
<g clip-path="url(#clip0_177_962)">
<path d="M11 22C17.0751 22 22 17.0751 22 11C22 4.92487 17.0751 0 11 0C4.92487 0 0 4.92487 0 11C0 17.0751 4.92487 22 11 22Z" fill="#FAF5F0"/>
<path d="M9.64702 24V13.9262H7.07201C7.06687 13.9262 7 13.8559 7 13.8504V10.7119C7 10.7065 7.06687 10.6361 7.07201 10.6361H9.64702C9.66052 8.45741 9.33776 5.89246 11.383 4.59105C12.5261 3.8639 13.74 3.9816 15.0131 4.056C15.3429 4.07494 15.6708 4.06209 16 4.10606V7.04236H13.9066C13.8776 7.04236 13.569 7.15803 13.5124 7.18441C13.236 7.3136 13.0637 7.51653 12.9576 7.8155C12.9421 7.85947 12.8721 8.11312 12.8721 8.13003V10.6355H15.9042L15.5191 13.9255H12.8721V23.9993H9.64766L9.64702 24Z" fill="#191919"/>
</g>
<defs>
<clipPath id="clip0_177_962">
<rect width="22" height="22" rx="11" fill="white"/>
</clipPath>
</defs>
</svg>
